<svg id="Layer_1" data-name="Layer 1" xmlns="http://www.w3.org/2000/svg" viewBox="0 0 841.89 841.89"><defs><style>.cls-1{fill:#4d4e4e;}</style></defs><title>logo</title><path class="cls-1" d="M174.06-.44V841.44h841.88V-.44Zm38.67,325A303.65,303.65,0,0,1,511.08,20.9c1.81-.11,3.63-.16,5.47-.16a95.28,95.28,0,1,1-60.14,21.38C325.93,69.8,227.73,185.9,227.73,324.51c0,159.16,129.49,288.65,288.65,288.65a288.89,288.89,0,0,0,82.88-12.07l64.61-256.31h-104V326.44h126.9l-4.61,18.34-2.48,9.86v0L663.71,418l-2.85,11.33L615,611.91l-6.23,1.85a6.63,6.63,0,0,1-.91.36q-6.39,2-12.87,3.75h0A303.74,303.74,0,0,1,212.73,324.51Zm757,495.76H766.07V801.93h48.47l-20.8-69.49H584.64L567,801.93h58.94v18.34H488.38V801.93h60.25l42-166.55,20-6L596.44,686l-8,31.43h200.8L779.83,686,687.12,379.39l8.68-34.61,1.55-6.16,3.06-12.18h80.73L924.57,801.93h45.19Z" transform="translate(-174.06 0.44)"/></svg>